<?xml version="1.0" encoding="UTF-8" standalone="no"?>
<!-- Created with Inkscape (http://www.inkscape.org/) -->

<svg
   width="135.46667mm"
   height="135.46667mm"
   viewBox="0 0 135.46668 135.46668"
   version="1.1"
   id="svg1"
   xml:space="preserve"
   inkscape:version="1.3.2 (091e20ef0f, 2023-11-25, custom)"
   sodipodi:docname="spider-logo2.svg"
   xmlns:inkscape="http://www.inkscape.org/namespaces/inkscape"
   xmlns:sodipodi="http://sodipodi.sourceforge.net/DTD/sodipodi-0.dtd"
   xmlns="http://www.w3.org/2000/svg"
   xmlns:svg="http://www.w3.org/2000/svg"><sodipodi:namedview
     id="namedview1"
     pagecolor="#ffffff"
     bordercolor="#000000"
     borderopacity="0.25"
     inkscape:showpageshadow="2"
     inkscape:pageopacity="0.0"
     inkscape:pagecheckerboard="true"
     inkscape:deskcolor="#d1d1d1"
     inkscape:document-units="mm"
     inkscape:zoom="0.76347295"
     inkscape:cx="345.78828"
     inkscape:cy="273.74906"
     inkscape:window-width="1366"
     inkscape:window-height="714"
     inkscape:window-x="0"
     inkscape:window-y="30"
     inkscape:window-maximized="1"
     inkscape:current-layer="layer2" /><defs
     id="defs1"><inkscape:path-effect
       effect="copy_rotate"
       starting_point="100.60859,252.93304"
       origin="57.618172,252.93304"
       id="path-effect9"
       is_visible="true"
       lpeversion="1.2"
       lpesatellites=""
       method="normal"
       num_copies="15"
       starting_angle="0"
       rotation_angle="24"
       gap="-0.01"
       copies_to_360="true"
       mirror_copies="false"
       split_items="false"
       link_styles="false" /><inkscape:path-effect
       effect="powerclip"
       id="path-effect8"
       is_visible="true"
       lpeversion="1"
       inverse="true"
       flatten="false"
       hide_clip="false"
       message="Usar a regra de preenchimento par ou ímpar na caixa de diálogo &lt;b&gt;preenchimento e contorno&lt;/b&gt; se nenhum resultado nivelar após converter o clipe em caminhos." /><inkscape:path-effect
       effect="copy_rotate"
       starting_point="103.04332,244.95147"
       origin="64.153967,244.95147"
       id="path-effect7"
       is_visible="true"
       lpeversion="1.2"
       lpesatellites=""
       method="normal"
       num_copies="14"
       starting_angle="0"
       rotation_angle="25.714286"
       gap="-0.01"
       copies_to_360="true"
       mirror_copies="false"
       split_items="false"
       link_styles="false" /><clipPath
       clipPathUnits="userSpaceOnUse"
       id="clipPath8"><path
         id="lpe_path-effect8"
         style="fill:#000000;stroke:none;stroke-width:0.3;stroke-linecap:round;stroke-linejoin:round"
         class="powerclip"
         d="M -22.324736,160.42284 H 150.63267 V 329.4801 H -22.324736 Z m 124.706426,84.52862 c 0,-16.89007 -17.115134,-30.58217 -38.227721,-30.58217 -21.112587,0 -38.227721,13.6921 -38.227722,30.58217 1e-6,16.89007 17.115135,30.58217 38.227722,30.58217 21.112587,0 38.227721,-13.6921 38.227721,-30.58217 z M -50.43625,206.31551 105.39299,131.2721 178.74418,283.58743 22.914946,358.63084 Z m 149.032201,22.04956 c -7.328326,-15.21742 -28.689309,-20.1276 -47.711093,-10.96719 -19.021783,9.16041 -28.501205,28.92254 -21.172881,44.13997 7.328326,15.21742 28.68931,20.1276 47.711094,10.96719 19.021783,-9.16041 28.501199,-28.92254 21.17288,-44.13997 z M -55.851767,259.8605 51.985412,124.63696 184.1597,230.04244 76.322522,365.26598 Z M 87.988555,215.06383 c -13.205187,-10.53079 -34.581215,-5.68652 -47.744698,10.81996 -13.163483,16.50649 -13.129676,38.42452 0.07551,48.95531 13.205186,10.53078 34.581215,5.68652 47.744698,-10.81997 13.163485,-16.50648 13.129675,-38.42452 -0.07551,-48.9553 z M -37.498676,310.45258 0.98796799,141.83158 165.80661,179.45036 127.31997,348.07136 Z M 72.660426,207.68219 c -16.466597,-3.75839 -33.623887,9.88085 -38.321879,30.4641 -4.697993,20.58325 4.842345,40.31605 21.308942,44.07445 16.466598,3.75839 33.623887,-9.88085 38.32188,-30.4641 4.697992,-20.58325 -4.842347,-40.31605 -21.308943,-44.07445 z M 0.98796799,348.07136 -37.498676,179.45036 127.31997,141.83158 l 38.48664,168.621 z M 55.647489,207.6822 c -16.466597,3.75839 -26.006935,23.49119 -21.308943,44.07444 4.697992,20.58325 21.855282,34.2225 38.321879,30.4641 C 89.127022,278.46235 98.667361,258.72955 93.969368,238.1463 89.271375,217.56305 72.114086,203.92381 55.647489,207.6822 Z M 51.985412,365.26598 -55.851767,230.04244 76.322522,124.63696 184.1597,259.8605 Z M 40.319364,215.06384 c -13.205185,10.53078 -13.238991,32.44882 -0.07551,48.95531 13.163482,16.50648 34.539511,21.35074 47.744698,10.81996 13.205188,-10.53078 13.238988,-32.44882 0.07551,-48.95531 C 74.900579,209.37732 53.52455,204.53306 40.319364,215.06384 Z M 105.39299,358.63084 -50.43625,283.58743 22.914946,131.2721 178.74418,206.31551 Z M 29.711974,228.36509 c -7.328323,15.21743 2.151098,34.97956 21.172881,44.13997 19.021783,9.16041 40.382767,4.25023 47.711093,-10.96719 C 105.92427,246.32044 96.444851,226.5583 77.423067,217.3979 58.401284,208.23749 37.040301,213.14767 29.711974,228.36509 Z M 150.63267,329.4801 H -22.324736 V 160.42284 H 150.63267 Z M 25.926244,244.95148 c 1e-6,16.89007 17.115134,30.58217 38.227721,30.58217 21.112587,0 38.227725,-13.6921 38.227725,-30.58217 0,-16.89007 -17.115138,-30.58217 -38.227725,-30.58217 -21.112587,0 -38.22772,13.6921 -38.227721,30.58217 z M 178.74418,283.58743 22.914946,358.63084 -50.43625,206.31551 105.39299,131.2721 Z M 29.711983,261.53787 c 7.328326,15.21742 28.689309,20.1276 47.711093,10.96719 19.021783,-9.16041 28.501204,-28.92254 21.172881,-44.13997 -7.328326,-15.21742 -28.68931,-20.1276 -47.711094,-10.96719 -19.021783,9.16041 -28.501204,28.92254 -21.17288,44.13997 z M 184.1597,230.04244 76.322522,365.26598 -55.851767,259.8605 51.985412,124.63696 Z M 40.319379,274.83911 c 13.205187,10.53079 34.581215,5.68652 47.744698,-10.81996 13.163483,-16.50649 13.129673,-38.42452 -0.07551,-48.95531 -13.205186,-10.53078 -34.581215,-5.68652 -47.744698,10.81997 -13.163482,16.50648 -13.129675,38.42452 0.07551,48.9553 z M 165.80661,179.45036 127.31997,348.07136 -37.498676,310.45258 0.98796799,141.83158 Z M 55.647508,282.22075 c 16.466597,3.75839 33.623887,-9.88085 38.321879,-30.4641 4.697993,-20.58325 -4.842345,-40.31605 -21.308942,-44.07445 -16.466598,-3.75839 -33.623887,9.88085 -38.32188,30.4641 -4.697992,20.58325 4.842347,40.31605 21.308943,44.07445 z M 127.31997,141.83158 165.80661,310.45258 0.98796799,348.07136 -37.498676,179.45036 Z M 72.660445,282.22074 C 89.127042,278.46235 98.66738,258.72955 93.969388,238.1463 89.271396,217.56305 72.114106,203.9238 55.647509,207.6822 c -16.466597,3.75839 -26.006936,23.49119 -21.308943,44.07444 4.697993,20.58325 21.855282,34.22249 38.321879,30.4641 z M 76.322522,124.63696 184.1597,259.8605 51.985412,365.26598 -55.851767,230.04244 Z M 87.98857,274.8391 c 13.20518,-10.53078 13.23899,-32.44882 0.07551,-48.95531 -13.163482,-16.50648 -34.539511,-21.35074 -47.744698,-10.81996 -13.205185,10.53078 -13.238991,32.44882 -0.07551,48.95531 13.163482,16.50648 34.539511,21.35074 47.744697,10.81996 z M 22.914946,131.2721 178.74418,206.31551 105.39299,358.63084 -50.43625,283.58743 Z M 98.59596,261.53785 c 7.32832,-15.21743 -2.151098,-34.97956 -21.172881,-44.13997 -19.021783,-9.16041 -40.382767,-4.25023 -47.711093,10.96719 -7.328324,15.21743 2.151097,34.97957 21.172881,44.13997 19.021783,9.16041 40.382766,4.25023 47.711093,-10.96719 z" /></clipPath></defs><g
     inkscape:groupmode="layer"
     id="layer2"
     inkscape:label="Camada 2"
     transform="translate(-8.9855194,-72.874268)"><circle
       style="fill:#ffffff;stroke:none;stroke-width:5.13328;stroke-linecap:round;stroke-linejoin:round;stroke-dasharray:none;stroke-opacity:1"
       id="path11"
       cx="76.718857"
       cy="140.6076"
       r="67.733337" /><g
       id="g2"
       transform="translate(0,6.20033)"><g
         id="g1"
         transform="translate(-24.193623,-131.03211)"><path
           style="fill:none;stroke:#000000;stroke-width:7.29398;stroke-linecap:round;stroke-linejoin:round;stroke-dasharray:none;stroke-opacity:1"
           d="m 100.91248,268.35043 24.1264,-17.52886 -7.20192,-26.95509 m -16.92448,44.48395 58.3404,-12.40063 m -58.3404,12.40063 58.3404,12.40064 m -58.3404,-12.40064 24.1264,17.52887 -18.01436,21.13299"
           id="path10"
           sodipodi:nodetypes="cccccccccc" /><path
           style="fill:none;stroke:#000000;stroke-width:7.29398;stroke-linecap:round;stroke-linejoin:round;stroke-dasharray:none;stroke-opacity:1"
           d="M 100.91248,268.35043 76.78608,250.82157 83.988,223.86648 m 16.92448,44.48395 -58.3404,-12.40063 m 58.3404,12.40063 -58.3404,12.40064 m 58.3404,-12.40064 -24.1264,17.52887 18.01436,21.13299"
           id="path10-2"
           sodipodi:nodetypes="cccccccccc" /></g><ellipse
         style="fill:#000000;stroke:none;stroke-width:0.208106;stroke-linecap:round;stroke-linejoin:round"
         id="path1"
         cx="76.718857"
         cy="134.40727"
         rx="26.518061"
         ry="21.214445" /><g
         id="g12"><path
           id="path2"
           style="fill:#f9f9f9;stroke-width:0.238455;stroke-linecap:round;stroke-linejoin:round"
           d="m 70.294955,130.0961 a 7.4794483,7.4794483 0 0 0 -7.479646,7.47965 7.4794483,7.4794483 0 0 0 7.479646,7.47913 7.4794483,7.4794483 0 0 0 6.423898,-3.67678 7.4794483,7.4794483 0 0 0 6.423897,3.67678 7.4794483,7.4794483 0 0 0 7.479647,-7.47913 7.4794483,7.4794483 0 0 0 -7.479647,-7.47965 7.4794483,7.4794483 0 0 0 -6.416146,3.66282 7.4794483,7.4794483 0 0 0 -6.431649,-3.66282 z" /><circle
           style="fill:#1a1a1a;stroke:none;stroke-width:0.208106;stroke-linecap:round;stroke-linejoin:round"
           id="path3"
           cx="81.04866"
           cy="138.10477"
           r="2.8557997" /><circle
           style="fill:#1a1a1a;stroke-width:0.208106;stroke-linecap:round;stroke-linejoin:round"
           id="path3-0"
           cx="-72.389061"
           cy="139.16309"
           r="2.8557997"
           transform="scale(-1,1)" /></g></g></g></svg>
